<?xml version="1.0" encoding="UTF-8" standalone="no"?>
<svg
   xmlns:dc="http://purl.org/dc/elements/1.1/"
   xmlns:cc="http://creativecommons.org/ns#"
   xmlns:rdf="http://www.w3.org/1999/02/22-rdf-syntax-ns#"
   xmlns:svg="http://www.w3.org/2000/svg"
   xmlns="http://www.w3.org/2000/svg"
   xmlns:xlink="http://www.w3.org/1999/xlink"
   xmlns:sodipodi="http://sodipodi.sourceforge.net/DTD/sodipodi-0.dtd"
   xmlns:inkscape="http://www.inkscape.org/namespaces/inkscape"
   version="1.1"
   id="beamng-apps-simpleroll"
   viewBox="0 0 579.1478 684.36475"
   height="193.14294mm"
   width="163.44838mm"
   inkscape:version="0.91 r13725"
   sodipodi:docname="simple-roll.svg">
  <sodipodi:namedview
     pagecolor="#ffffff"
     bordercolor="#666666"
     borderopacity="1"
     objecttolerance="10"
     gridtolerance="10"
     guidetolerance="10"
     inkscape:pageopacity="0"
     inkscape:pageshadow="2"
     inkscape:window-width="1920"
     inkscape:window-height="1027"
     id="namedview37"
     showgrid="false"
     inkscape:zoom="0.34484534"
     inkscape:cx="-524.82791"
     inkscape:cy="342.18238"
     inkscape:window-x="-8"
     inkscape:window-y="-8"
     inkscape:window-maximized="1"
     inkscape:current-layer="beamng-apps-simpleroll" />
  <defs
     id="defs4414" />
  <metadata
     id="metadata4417">
    <rdf:RDF>
      <cc:Work
         rdf:about="">
        <dc:format>image/svg+xml</dc:format>
        <dc:type
           rdf:resource="http://purl.org/dc/dcmitype/StillImage" />
        <dc:title />
      </cc:Work>
    </rdf:RDF>
  </metadata>
  <g
     transform="translate(18.145325,-284.65619)"
     id="layer1">
    <g
       id="circle"
       inkscape:label="#g4164">
      <circle
         style="fill:#7878a9;fill-opacity:1;stroke:#000000;stroke-width:0;stroke-miterlimit:4;stroke-dasharray:none;stroke-opacity:1"
         id="path4136"
         cx="-568.88898"
         cy="-392.38409"
         r="260"
         transform="matrix(-0.8660254,-0.5,0.5,-0.8660254,0,0)" />
      <path
         transform="scale(-1,-1)"
         inkscape:label="#circle4275"
         id="red-area"
         style="fill:#a77676;fill-opacity:1;stroke:#000000;stroke-width:6;stroke-miterlimit:4;stroke-dasharray:none;stroke-opacity:1"
         d="m -556.48029,-624.25905 a 260,260 0 0 1 260.00001,-259.99998 260,260 0 0 1 259.999994,260 l -260.000004,0 z"
         inkscape:connector-curvature="0" />
    </g>
    <g
       transform="matrix(-0.8660254,-0.5,0.5,-0.8660254,360.49962,1224.8029)"
       style="stroke:#000000;stroke-width:6;stroke-miterlimit:4;stroke-dasharray:none;stroke-opacity:1"
       id="g4167">
      <path
         style="fill:none;fill-rule:evenodd;stroke:#000000;stroke-width:6;stroke-linecap:butt;stroke-linejoin:miter;stroke-miterlimit:4;stroke-dasharray:none;stroke-opacity:1"
         d="m 355.71429,232.3622 0,60 0,0"
         id="path4142"
         inkscape:connector-curvature="0" />
      <use
         style="stroke:#000000;stroke-width:6;stroke-miterlimit:4;stroke-dasharray:none;stroke-opacity:1"
         x="0"
         y="0"
         xlink:href="#path4142"
         transform="matrix(0.93969262,0.34202014,-0.34202014,0.93969262,188.34754,-92.233302)"
         id="use4146"
         width="100%"
         height="100%" />
      <use
         style="stroke:#000000;stroke-width:6;stroke-miterlimit:4;stroke-dasharray:none;stroke-opacity:1"
         x="0"
         y="0"
         xlink:href="#path4142"
         transform="matrix(0.76604444,0.64278761,-0.64278761,0.76604444,396.88198,-114.4856)"
         id="use4148"
         width="100%"
         height="100%" />
      <use
         style="stroke:#000000;stroke-width:6;stroke-miterlimit:4;stroke-dasharray:none;stroke-opacity:1"
         x="0"
         y="0"
         xlink:href="#path4142"
         transform="matrix(0.5,0.8660254,-0.8660254,0.5,600.45099,-64.072945)"
         id="use4150"
         width="100%"
         height="100%" />
      <use
         style="stroke:#000000;stroke-width:6;stroke-miterlimit:4;stroke-dasharray:none;stroke-opacity:1"
         x="0"
         y="0"
         xlink:href="#path4142"
         transform="matrix(0.17364818,0.98480775,-0.98480775,0.17364818,774.50114,52.924158)"
         id="use4152"
         width="100%"
         height="100%" />
      <use
         style="stroke:#000000;stroke-width:6;stroke-miterlimit:4;stroke-dasharray:none;stroke-opacity:1"
         x="0"
         y="0"
         xlink:href="#path4142"
         transform="matrix(-0.17364818,0.98480775,-0.98480775,-0.17364818,898.03942,222.39413)"
         id="use4154"
         width="100%"
         height="100%" />
      <use
         style="stroke:#000000;stroke-width:6;stroke-miterlimit:4;stroke-dasharray:none;stroke-opacity:1"
         x="0"
         y="0"
         xlink:href="#path4142"
         transform="matrix(-0.5,0.8660254,-0.8660254,-0.5,956.16529,423.89639)"
         id="use4156"
         width="100%"
         height="100%" />
    </g>
    <circle
       style="fill:none;fill-opacity:1;stroke:#000000;stroke-width:9;stroke-miterlimit:4;stroke-dasharray:none;stroke-opacity:1"
       id="circle4277"
       cx="-568.88898"
       cy="-392.38409"
       r="260"
       transform="matrix(-0.8660254,-0.5,0.5,-0.8660254,0,0)" />
    <text
       id="text4312"
       y="639.97333"
       x="-19.805481"
       style="font-style:normal;font-variant:normal;font-weight:normal;font-stretch:normal;font-size:40px;line-height:125%;font-family:Arial;-inkscape-font-specification:Arial;letter-spacing:0px;word-spacing:0px;fill:#000000;fill-opacity:1;stroke:none;stroke-width:1px;stroke-linecap:butt;stroke-linejoin:miter;stroke-opacity:1"
       xml:space="preserve"
       sodipodi:linespacing="125%"><tspan
         y="639.97333"
         x="-19.805481"
         id="tspan4314">0</tspan></text>
    <text
       transform="matrix(0.93969262,0.34202015,-0.34202015,0.93969262,0,0)"
       id="text4316"
       y="501.31613"
       x="165.5975"
       style="font-style:normal;font-variant:normal;font-weight:normal;font-stretch:normal;font-size:40px;line-height:125%;font-family:Arial;-inkscape-font-specification:Arial;letter-spacing:0px;word-spacing:0px;fill:#000000;fill-opacity:1;stroke:none;stroke-width:1px;stroke-linecap:butt;stroke-linejoin:miter;stroke-opacity:1"
       xml:space="preserve"
       sodipodi:linespacing="125%"><tspan
         y="501.31613"
         x="165.5975"
         id="tspan4318">20</tspan></text>
    <text
       transform="matrix(0.76604444,0.64278762,-0.64278762,0.76604444,0,0)"
       id="text4322"
       y="299.86591"
       x="300.43027"
       style="font-style:normal;font-variant:normal;font-weight:normal;font-stretch:normal;font-size:40px;line-height:125%;font-family:Arial;-inkscape-font-specification:Arial;letter-spacing:0px;word-spacing:0px;fill:#000000;fill-opacity:1;stroke:none;stroke-width:1px;stroke-linecap:butt;stroke-linejoin:miter;stroke-opacity:1"
       xml:space="preserve"
       sodipodi:linespacing="125%"><tspan
         y="299.86591"
         x="300.43027"
         id="tspan4324">40</tspan></text>
    <text
       transform="matrix(0.49999999,0.86602541,-0.86602541,0.49999999,0,0)"
       id="text4326"
       y="70.158562"
       x="361.09216"
       style="font-style:normal;font-variant:normal;font-weight:normal;font-stretch:normal;font-size:40px;line-height:125%;font-family:Arial;-inkscape-font-specification:Arial;letter-spacing:0px;word-spacing:0px;fill:#000000;fill-opacity:1;stroke:none;stroke-width:1px;stroke-linecap:butt;stroke-linejoin:miter;stroke-opacity:1"
       xml:space="preserve"
       sodipodi:linespacing="125%"><tspan
         y="70.158562"
         x="361.09216"
         id="tspan4328">60</tspan></text>
    <text
       transform="matrix(0.93969262,-0.34202015,0.34202015,0.93969262,0,0)"
       xml:space="preserve"
       style="font-style:normal;font-variant:normal;font-weight:normal;font-stretch:normal;font-size:40px;line-height:125%;font-family:Arial;-inkscape-font-specification:Arial;letter-spacing:0px;word-spacing:0px;fill:#000000;fill-opacity:1;stroke:none;stroke-width:1px;stroke-linecap:butt;stroke-linejoin:miter;stroke-opacity:1"
       x="-261.13934"
       y="700.50983"
       id="text4330"
       sodipodi:linespacing="125%"><tspan
         id="tspan4332"
         x="-261.13934"
         y="700.50983">20</tspan></text>
    <text
       transform="matrix(0.76604444,-0.64278762,0.64278762,0.76604444,0,0)"
       xml:space="preserve"
       style="font-style:normal;font-variant:normal;font-weight:normal;font-stretch:normal;font-size:40px;line-height:125%;font-family:Arial;-inkscape-font-specification:Arial;letter-spacing:0px;word-spacing:0px;fill:#000000;fill-opacity:1;stroke:none;stroke-width:1px;stroke-linecap:butt;stroke-linejoin:miter;stroke-opacity:1"
       x="-500.83682"
       y="674.92432"
       id="text4334"
       sodipodi:linespacing="125%"><tspan
         id="tspan4336"
         x="-500.83682"
         y="674.92432">40</tspan></text>
    <text
       transform="matrix(0.49999999,-0.86602541,0.86602541,0.49999999,0,0)"
       xml:space="preserve"
       style="font-style:normal;font-variant:normal;font-weight:normal;font-stretch:normal;font-size:40px;line-height:125%;font-family:Arial;-inkscape-font-specification:Arial;letter-spacing:0px;word-spacing:0px;fill:#000000;fill-opacity:1;stroke:none;stroke-width:1px;stroke-linecap:butt;stroke-linejoin:miter;stroke-opacity:1"
       x="-717.00574"
       y="585.94598"
       id="text4338"
       sodipodi:linespacing="125%"><tspan
         id="tspan4340"
         x="-717.00574"
         y="585.94598">60</tspan></text>
    <text
       id="text5018"
       y="327.60538"
       x="223.4285"
       style="font-style:normal;font-variant:normal;font-weight:normal;font-stretch:normal;font-size:60px;line-height:125%;font-family:Arial;-inkscape-font-specification:Arial;letter-spacing:0px;word-spacing:0px;fill:#000000;fill-opacity:1;stroke:none;stroke-width:1px;stroke-linecap:butt;stroke-linejoin:miter;stroke-opacity:1"
       xml:space="preserve"
       sodipodi:linespacing="125%"><tspan
         style="font-style:normal;font-variant:normal;font-weight:normal;font-stretch:normal;font-size:60px;font-family:Arial;-inkscape-font-specification:Arial"
         y="327.60538"
         x="223.4285"
         id="tspan5020"
         transform="translate(21.079135,0)">Roll</tspan></text>
    <text
       id="text5022"
       y="968.28851"
       x="279.98611"
       style="font-style:normal;font-variant:normal;font-weight:normal;font-stretch:normal;font-size:60px;line-height:125%;font-family:Arial;-inkscape-font-specification:Arial;letter-spacing:0px;word-spacing:0px;fill:#000000;fill-opacity:1;stroke:none;stroke-width:1px;stroke-linecap:butt;stroke-linejoin:miter;stroke-opacity:1"
       xml:space="preserve"
       sodipodi:linespacing="125%"><tspan
         y="968.28851"
         x="279.98611"
         id="roll-text"
         style="text-anchor:middle">0</tspan></text>
    <path
       style="fill:#000000;fill-opacity:1;stroke:none"
       id="path2995"
       d="m 296.47917,520.96352 -0.16347,0.0411 c 0,0 -78.73785,0.81439 -82.78129,3.08885 -4.04367,2.27447 -4.80361,3.81481 -7.33088,7.28969 -2.52726,3.47491 -20.8396,57.04081 -20.8396,57.04081 l -0.8236,6.46602 -2.05911,2.30634 -1.85353,8.81354 -0.37055,11.24342 c 0,0 -0.44512,17.62668 0.12384,24.13424 0.28065,3.21106 0.42035,5.67447 0.49416,7.37204 -0.70693,0.95159 -1.11192,2.1365 -1.11192,3.41834 l 0,72.60863 c 0,3.16801 2.55674,5.72468 5.72456,5.72468 l 21.62208,0 c 3.16807,0 5.68344,-2.55667 5.68344,-5.72468 l 0,-35.91306 70.79665,0 c 1.66799,5.42035 6.71733,9.39012 12.68487,9.39012 0.0694,0 0.13624,9.1e-4 0.2056,0 0.0693,9.1e-4 0.13623,0 0.20559,0 5.96754,0 11.01663,-3.96977 12.68488,-9.39012 l 70.79639,0 0,35.91306 c 0,3.16801 2.51562,5.72468 5.68344,5.72468 l 21.62208,0 c 3.16806,0 5.72456,-2.55667 5.72456,-5.72468 l 0,-72.60863 c 0,-1.28184 -0.40474,-2.46675 -1.11192,-3.41834 0.0743,-1.69757 0.21302,-4.16098 0.49416,-7.37204 0.56871,-6.50756 0.12384,-24.13424 0.12384,-24.13424 l -0.37055,-11.24342 -1.85328,-8.81354 -2.05936,-2.30634 -0.8236,-6.46602 c 0,0 -18.31234,-53.5659 -20.83936,-57.04081 -2.52726,-3.47488 -3.28745,-5.01522 -7.33088,-7.28969 -4.04368,-2.27446 -82.78127,-3.08885 -82.78127,-3.08885 l -0.16597,-0.0411 z m 0,7.12494 c 0.31854,0.005 46.85784,0.8237 51.7692,0.8237 4.92797,0 26.93472,1.27674 26.93472,1.27674 0,0 2.53668,1.00153 3.29489,2.26515 0.75795,1.26361 7.04255,16.06204 7.04255,16.06204 0,0 7.61351,23.24691 7.86616,24.2578 0.2529,1.01088 1.23552,8.31929 1.23552,8.31929 l -98.14304,1.11199 -98.14328,-1.11199 c 0,0 0.98287,-7.30841 1.23552,-8.31929 0.2529,-1.01089 7.86641,-24.2578 7.86641,-24.2578 0,0 6.28435,-14.79843 7.04255,-16.06204 0.75821,-1.26362 3.29489,-2.26515 3.29489,-2.26515 0,0 22.00675,-1.27674 26.93471,-1.27674 4.91112,0 51.45042,-0.81815 51.7692,-0.8237 z m -102.55008,59.63546 204.97632,0 0,3.58308 -204.97632,0 0,-3.58308 z m 18.86272,87.14686 74.91488,0 c -1.89985,1.61004 -3.36052,3.7415 -4.11848,6.17769 l -70.7964,0 0,-6.17769 z m 92.4596,0 74.91513,0 0,6.17769 -70.79665,0 c -0.7577,-2.43619 -2.21838,-4.56765 -4.11848,-6.17769 z"
       inkscape:connector-curvature="0" />
  </g>
</svg>
