<?xml version="1.0" encoding="UTF-8" standalone="no"?>
<!-- Created with Inkscape (http://www.inkscape.org/) -->

<svg
   xmlns:dc="http://purl.org/dc/elements/1.1/"
   xmlns:cc="http://creativecommons.org/ns#"
   xmlns:rdf="http://www.w3.org/1999/02/22-rdf-syntax-ns#"
   xmlns:svg="http://www.w3.org/2000/svg"
   xmlns="http://www.w3.org/2000/svg"
   version="1.1"
   width="256"
   height="256"
   id="svg2">
  <defs
     id="defs4" />
  <metadata
     id="metadata7">
    <rdf:RDF>
      <cc:Work
         rdf:about="">
        <dc:format>image/svg+xml</dc:format>
        <dc:type
           rdf:resource="http://purl.org/dc/dcmitype/StillImage" />
        <dc:title></dc:title>
      </cc:Work>
    </rdf:RDF>
  </metadata>
  <g
     id="layer1"
     style="fill:#000000;fill-opacity:1;stroke:none">
    <path
       d="m 135.8125,86.84375 c -0.0607,0.009 -0.0937,0.03125 -0.0937,0.03125 l -33.65625,0 c -1.65178,0.0893 -3.78125,0.8125 -3.78125,0.8125 l -2.0625,1.25 -5.90625,4.21875 -9.5,8.1875 -10.625,9.5625 c 0,0 -1.196429,0.076 -1.6875,0.0312 -0.491072,-0.0446 -37.209821,2.04018 -43.59375,3.46875 0,0 -12.075893,1.66964 -12.65625,2.25 -0.580357,0.58037 -0.8125,3 -0.8125,3 l 1.875,14.375 -3.96875,2 0.3125,3.0625 -3.625,1.25 0.90625,10.375 14.90625,1.125 0.9375,0.0625 c -0.01067,-0.2856 -0.03125,-0.5867 -0.03125,-0.875 0,-12.5164 10.139806,-22.65625 22.65625,-22.65625 12.516444,0 22.65625,10.13975 22.65625,22.65625 0,1.0866 -0.07088,2.17295 -0.21875,3.21875 l 2.125,0.125 68.71875,-0.3125 -0.0625,-38.78125 c 0,0 -1.50446,-26.62946 -1.90625,-27.65625 -0.30133,-0.77009 -0.72419,-0.80845 -0.90625,-0.78125 z m -7.3125,4.375 c 0.43406,0.0158 0.625,0.625 0.625,0.625 l 0.53125,22.875 -50.71875,0 c 0,0 -1.77381,0.32996 -1.40625,-0.96875 0.167411,-0.59152 9.433035,-8.79464 16.53125,-15.3125 6.99913,-6.42687 5.848213,-5.12054 7.03125,-6.125 1.18304,-1.00447 2.28125,-1.0625 2.28125,-1.0625 0,0 24.69095,-0.04705 25.125,-0.03125 z m 11.03125,22.65625 0,40.1875 25.875,0 2.96875,-0.15625 c -0.10288,-0.8636 -0.1875,-1.76495 -0.1875,-2.65625 0,-12.1677 9.8635,-22.03125 22.03125,-22.03125 12.16776,0 22.03125,9.86355 22.03125,22.03125 0,0.1953 0.005,0.39965 0,0.59375 l 3.78125,-0.1875 24.28125,-2.40625 7.78125,-0.28125 1.875,-8.5625 -0.71875,-0.8125 -5.625,0.0937 -1.4375,-3.84375 -0.4375,-18.21875 -0.71875,-0.71875 -0.0937,-2.9375 -101.40625,-0.0937 z m -94.125,19.15625 c -9.936194,0 -18,8.06381 -18,18 0,9.93619 8.063806,18 18,18 9.936194,0 18,-8.06381 18,-18 0,-9.93619 -8.063806,-18 -18,-18 z m 144.8125,0 c -9.93619,0 -17.96875,8.06381 -17.96875,18 0,9.93619 8.03256,18 17.96875,18 9.93619,0 18,-8.06381 18,-18 0,-9.93619 -8.06381,-18 -18,-18 z"
       id="path3802"
       style="fill:#000000;fill-opacity:1;stroke:none" />
  </g>
</svg>
