<?xml version="1.0" encoding="UTF-8" standalone="no"?>
<svg
   xmlns:dc="http://purl.org/dc/elements/1.1/"
   xmlns:cc="http://creativecommons.org/ns#"
   xmlns:rdf="http://www.w3.org/1999/02/22-rdf-syntax-ns#"
   xmlns:svg="http://www.w3.org/2000/svg"
   xmlns="http://www.w3.org/2000/svg"
   xmlns:xlink="http://www.w3.org/1999/xlink"
   xmlns:sodipodi="http://sodipodi.sourceforge.net/DTD/sodipodi-0.dtd"
   xmlns:inkscape="http://www.inkscape.org/namespaces/inkscape"
   version="1.1"
   id="svg4412"
   viewBox="0 0 579.1478 684.36475"
   height="193.14294mm"
   width="163.44838mm"
   inkscape:version="0.91 r13725"
   sodipodi:docname="simple-pitch.svg">
  <sodipodi:namedview
     pagecolor="#ffffff"
     bordercolor="#666666"
     borderopacity="1"
     objecttolerance="10"
     gridtolerance="10"
     guidetolerance="10"
     inkscape:pageopacity="0"
     inkscape:pageshadow="2"
     inkscape:window-width="1920"
     inkscape:window-height="1027"
     id="namedview37"
     showgrid="false"
     inkscape:zoom="0.34484534"
     inkscape:cx="-1100.9045"
     inkscape:cy="342.18238"
     inkscape:window-x="-8"
     inkscape:window-y="-8"
     inkscape:window-maximized="1"
     inkscape:current-layer="layer1" />
  <defs
     id="defs4414" />
  <metadata
     id="metadata4417">
    <rdf:RDF>
      <cc:Work
         rdf:about="">
        <dc:format>image/svg+xml</dc:format>
        <dc:type
           rdf:resource="http://purl.org/dc/dcmitype/StillImage" />
        <dc:title />
      </cc:Work>
    </rdf:RDF>
  </metadata>
  <g
     transform="translate(18.145325,-284.65619)"
     id="layer1">
    <g
       id="circle"
       inkscape:label="#g4164">
      <circle
         style="fill:#7878a9;fill-opacity:1;stroke:#000000;stroke-width:0;stroke-miterlimit:4;stroke-dasharray:none;stroke-opacity:1"
         id="path4136"
         cx="-568.88898"
         cy="-392.38409"
         r="260"
         transform="matrix(-0.8660254,-0.5,0.5,-0.8660254,0,0)" />
      <path
         transform="scale(-1,-1)"
         inkscape:label="#circle4275"
         id="red-area"
         style="fill:#a77676;fill-opacity:1;stroke:#000000;stroke-width:6;stroke-miterlimit:4;stroke-dasharray:none;stroke-opacity:1"
         d="m -556.48029,-624.25905 a 260,260 0 0 1 260.00001,-259.99998 260,260 0 0 1 259.999994,260 l -260.000004,0 z"
         inkscape:connector-curvature="0" />
    </g>
    <g
       transform="matrix(-0.8660254,-0.5,0.5,-0.8660254,360.49962,1224.8029)"
       style="stroke:#000000;stroke-width:6;stroke-miterlimit:4;stroke-dasharray:none;stroke-opacity:1"
       id="g4167">
      <path
         style="fill:none;fill-rule:evenodd;stroke:#000000;stroke-width:6;stroke-linecap:butt;stroke-linejoin:miter;stroke-miterlimit:4;stroke-dasharray:none;stroke-opacity:1"
         d="m 355.71429,232.3622 0,60 0,0"
         id="path4142" />
      <use
         style="stroke:#000000;stroke-width:6;stroke-miterlimit:4;stroke-dasharray:none;stroke-opacity:1"
         x="0"
         y="0"
         xlink:href="#path4142"
         transform="matrix(0.93969262,0.34202014,-0.34202014,0.93969262,188.34754,-92.233302)"
         id="use4146"
         width="100%"
         height="100%" />
      <use
         style="stroke:#000000;stroke-width:6;stroke-miterlimit:4;stroke-dasharray:none;stroke-opacity:1"
         x="0"
         y="0"
         xlink:href="#path4142"
         transform="matrix(0.76604444,0.64278761,-0.64278761,0.76604444,396.88198,-114.4856)"
         id="use4148"
         width="100%"
         height="100%" />
      <use
         style="stroke:#000000;stroke-width:6;stroke-miterlimit:4;stroke-dasharray:none;stroke-opacity:1"
         x="0"
         y="0"
         xlink:href="#path4142"
         transform="matrix(0.5,0.8660254,-0.8660254,0.5,600.45099,-64.072945)"
         id="use4150"
         width="100%"
         height="100%" />
      <use
         style="stroke:#000000;stroke-width:6;stroke-miterlimit:4;stroke-dasharray:none;stroke-opacity:1"
         x="0"
         y="0"
         xlink:href="#path4142"
         transform="matrix(0.17364818,0.98480775,-0.98480775,0.17364818,774.50114,52.924158)"
         id="use4152"
         width="100%"
         height="100%" />
      <use
         style="stroke:#000000;stroke-width:6;stroke-miterlimit:4;stroke-dasharray:none;stroke-opacity:1"
         x="0"
         y="0"
         xlink:href="#path4142"
         transform="matrix(-0.17364818,0.98480775,-0.98480775,-0.17364818,898.03942,222.39413)"
         id="use4154"
         width="100%"
         height="100%" />
      <use
         style="stroke:#000000;stroke-width:6;stroke-miterlimit:4;stroke-dasharray:none;stroke-opacity:1"
         x="0"
         y="0"
         xlink:href="#path4142"
         transform="matrix(-0.5,0.8660254,-0.8660254,-0.5,956.16529,423.89639)"
         id="use4156"
         width="100%"
         height="100%" />
    </g>
    <g
       transform="matrix(1.4333664,0,0,1.4333664,113.00934,440.88197)"
       id="layer1-6"
       style="fill:#000000;fill-opacity:1;stroke:none">
      <path
         d="m 135.8125,86.84375 c -0.0607,0.009 -0.0937,0.03125 -0.0937,0.03125 l -33.65625,0 c -1.65178,0.0893 -3.78125,0.8125 -3.78125,0.8125 l -2.0625,1.25 -5.90625,4.21875 -9.5,8.1875 -10.625,9.5625 c 0,0 -1.196429,0.076 -1.6875,0.0312 -0.491072,-0.0446 -37.209821,2.04018 -43.59375,3.46875 0,0 -12.075893,1.66964 -12.65625,2.25 -0.580357,0.58037 -0.8125,3 -0.8125,3 l 1.875,14.375 -3.96875,2 0.3125,3.0625 -3.625,1.25 0.90625,10.375 14.90625,1.125 0.9375,0.0625 c -0.01067,-0.2856 -0.03125,-0.5867 -0.03125,-0.875 0,-12.5164 10.139806,-22.65625 22.65625,-22.65625 12.516444,0 22.65625,10.13975 22.65625,22.65625 0,1.0866 -0.07088,2.17295 -0.21875,3.21875 l 2.125,0.125 68.71875,-0.3125 -0.0625,-38.78125 c 0,0 -1.50446,-26.62946 -1.90625,-27.65625 -0.30133,-0.77009 -0.72419,-0.80845 -0.90625,-0.78125 z m -7.3125,4.375 c 0.43406,0.0158 0.625,0.625 0.625,0.625 l 0.53125,22.875 -50.71875,0 c 0,0 -1.77381,0.32996 -1.40625,-0.96875 0.167411,-0.59152 9.433035,-8.79464 16.53125,-15.3125 6.99913,-6.42687 5.848213,-5.12054 7.03125,-6.125 1.18304,-1.00447 2.28125,-1.0625 2.28125,-1.0625 0,0 24.69095,-0.04705 25.125,-0.03125 z m 11.03125,22.65625 0,40.1875 25.875,0 2.96875,-0.15625 c -0.10288,-0.8636 -0.1875,-1.76495 -0.1875,-2.65625 0,-12.1677 9.8635,-22.03125 22.03125,-22.03125 12.16776,0 22.03125,9.86355 22.03125,22.03125 0,0.1953 0.005,0.39965 0,0.59375 l 3.78125,-0.1875 24.28125,-2.40625 7.78125,-0.28125 1.875,-8.5625 -0.71875,-0.8125 -5.625,0.0937 -1.4375,-3.84375 -0.4375,-18.21875 -0.71875,-0.71875 -0.0937,-2.9375 -101.40625,-0.0937 z m -94.125,19.15625 c -9.936194,0 -18,8.06381 -18,18 0,9.93619 8.063806,18 18,18 9.936194,0 18,-8.06381 18,-18 0,-9.93619 -8.063806,-18 -18,-18 z m 144.8125,0 c -9.93619,0 -17.96875,8.06381 -17.96875,18 0,9.93619 8.03256,18 17.96875,18 9.93619,0 18,-8.06381 18,-18 0,-9.93619 -8.06381,-18 -18,-18 z"
         id="path3802"
         style="fill:#000000;fill-opacity:1;stroke:none" />
    </g>
    <circle
       style="fill:none;fill-opacity:1;stroke:#000000;stroke-width:9;stroke-miterlimit:4;stroke-dasharray:none;stroke-opacity:1"
       id="circle4277"
       cx="-568.88898"
       cy="-392.38409"
       r="260"
       transform="matrix(-0.8660254,-0.5,0.5,-0.8660254,0,0)" />
    <text
       id="text4312"
       y="639.97333"
       x="-19.805481"
       style="font-style:normal;font-variant:normal;font-weight:normal;font-stretch:normal;font-size:40px;line-height:125%;font-family:Arial;-inkscape-font-specification:Arial;letter-spacing:0px;word-spacing:0px;fill:#000000;fill-opacity:1;stroke:none;stroke-width:1px;stroke-linecap:butt;stroke-linejoin:miter;stroke-opacity:1"
       xml:space="preserve"><tspan
         y="639.97333"
         x="-19.805481"
         id="tspan4314">0</tspan></text>
    <text
       transform="matrix(0.93969262,0.34202015,-0.34202015,0.93969262,0,0)"
       id="text4316"
       y="501.31613"
       x="165.5975"
       style="font-style:normal;font-variant:normal;font-weight:normal;font-stretch:normal;font-size:40px;line-height:125%;font-family:Arial;-inkscape-font-specification:Arial;letter-spacing:0px;word-spacing:0px;fill:#000000;fill-opacity:1;stroke:none;stroke-width:1px;stroke-linecap:butt;stroke-linejoin:miter;stroke-opacity:1"
       xml:space="preserve"><tspan
         y="501.31613"
         x="165.5975"
         id="tspan4318">20</tspan></text>
    <text
       transform="matrix(0.76604444,0.64278762,-0.64278762,0.76604444,0,0)"
       id="text4322"
       y="299.86591"
       x="300.43027"
       style="font-style:normal;font-variant:normal;font-weight:normal;font-stretch:normal;font-size:40px;line-height:125%;font-family:Arial;-inkscape-font-specification:Arial;letter-spacing:0px;word-spacing:0px;fill:#000000;fill-opacity:1;stroke:none;stroke-width:1px;stroke-linecap:butt;stroke-linejoin:miter;stroke-opacity:1"
       xml:space="preserve"><tspan
         y="299.86591"
         x="300.43027"
         id="tspan4324">40</tspan></text>
    <text
       transform="matrix(0.49999999,0.86602541,-0.86602541,0.49999999,0,0)"
       id="text4326"
       y="70.158562"
       x="361.09216"
       style="font-style:normal;font-variant:normal;font-weight:normal;font-stretch:normal;font-size:40px;line-height:125%;font-family:Arial;-inkscape-font-specification:Arial;letter-spacing:0px;word-spacing:0px;fill:#000000;fill-opacity:1;stroke:none;stroke-width:1px;stroke-linecap:butt;stroke-linejoin:miter;stroke-opacity:1"
       xml:space="preserve"><tspan
         y="70.158562"
         x="361.09216"
         id="tspan4328">60</tspan></text>
    <text
       transform="matrix(0.93969262,-0.34202015,0.34202015,0.93969262,0,0)"
       xml:space="preserve"
       style="font-style:normal;font-variant:normal;font-weight:normal;font-stretch:normal;font-size:40px;line-height:125%;font-family:Arial;-inkscape-font-specification:Arial;letter-spacing:0px;word-spacing:0px;fill:#000000;fill-opacity:1;stroke:none;stroke-width:1px;stroke-linecap:butt;stroke-linejoin:miter;stroke-opacity:1"
       x="-261.13934"
       y="700.50983"
       id="text4330"><tspan
         id="tspan4332"
         x="-261.13934"
         y="700.50983">20</tspan></text>
    <text
       transform="matrix(0.76604444,-0.64278762,0.64278762,0.76604444,0,0)"
       xml:space="preserve"
       style="font-style:normal;font-variant:normal;font-weight:normal;font-stretch:normal;font-size:40px;line-height:125%;font-family:Arial;-inkscape-font-specification:Arial;letter-spacing:0px;word-spacing:0px;fill:#000000;fill-opacity:1;stroke:none;stroke-width:1px;stroke-linecap:butt;stroke-linejoin:miter;stroke-opacity:1"
       x="-500.83682"
       y="674.92432"
       id="text4334"><tspan
         id="tspan4336"
         x="-500.83682"
         y="674.92432">40</tspan></text>
    <text
       transform="matrix(0.49999999,-0.86602541,0.86602541,0.49999999,0,0)"
       xml:space="preserve"
       style="font-style:normal;font-variant:normal;font-weight:normal;font-stretch:normal;font-size:40px;line-height:125%;font-family:Arial;-inkscape-font-specification:Arial;letter-spacing:0px;word-spacing:0px;fill:#000000;fill-opacity:1;stroke:none;stroke-width:1px;stroke-linecap:butt;stroke-linejoin:miter;stroke-opacity:1"
       x="-717.00574"
       y="585.94598"
       id="text4338"><tspan
         id="tspan4340"
         x="-717.00574"
         y="585.94598">60</tspan></text>
    <text
       id="text5018"
       y="327.60538"
       x="223.4285"
       style="font-style:normal;font-variant:normal;font-weight:normal;font-stretch:normal;font-size:60px;line-height:125%;font-family:Arial;-inkscape-font-specification:Arial;letter-spacing:0px;word-spacing:0px;fill:#000000;fill-opacity:1;stroke:none;stroke-width:1px;stroke-linecap:butt;stroke-linejoin:miter;stroke-opacity:1"
       xml:space="preserve"><tspan
         style="font-style:normal;font-variant:normal;font-weight:normal;font-stretch:normal;font-size:60px;font-family:Arial;-inkscape-font-specification:Arial"
         y="327.60538"
         x="223.4285"
         id="tspan5020">Pitch</tspan></text>
    <text
       id="text5022"
       y="968.28851"
       x="279.98611"
       style="font-style:normal;font-variant:normal;font-weight:normal;font-stretch:normal;font-size:60px;line-height:125%;font-family:Arial;-inkscape-font-specification:Arial;letter-spacing:0px;word-spacing:0px;fill:#000000;fill-opacity:1;stroke:none;stroke-width:1px;stroke-linecap:butt;stroke-linejoin:miter;stroke-opacity:1"
       xml:space="preserve"><tspan
         y="968.28851"
         x="279.98611"
         id="pitch-text"
         style="text-anchor:middle">0</tspan></text>
  </g>
</svg>
