<!-- Created with Inkscape (http://www.inkscape.org/) -->
<svg id="svg2985" xmlns:rdf="http://www.w3.org/1999/02/22-rdf-syntax-ns#" xmlns="http://www.w3.org/2000/svg" height="64px" width="64px" version="1.1" xmlns:cc="http://creativecommons.org/ns#" xmlns:dc="http://purl.org/dc/elements/1.1/">
	<metadata id="metadata2990">
		<rdf:RDF>
			<cc:Work rdf:about="">
				<dc:format>image/svg+xml</dc:format>
				<dc:type rdf:resource="http://purl.org/dc/dcmitype/StillImage"/>
				<dc:title/>
			</cc:Work>
		</rdf:RDF>
	</metadata>
	<g id="layer1">
		<path id="path2993" style="baseline-shift:baseline;block-progression:tb;color:#000000;direction:ltr;text-indent:0;text-align:start;enable-background:accumulate;text-transform:none;" fill-opacity="0.50196078" fill="#000" d="M31.938,1.875c-16.367,0-29.75,13.386-29.75,30.094s13.384,30.093,29.75,30.093,29.937-13.385,29.937-30.093-13.571-30.094-29.937-30.094zm0,6.9688c11.567,0,21.096,8.1002,23.156,18.781h-16.719c-1.393-2.023-3.733-3.344-6.375-3.344s-4.982,1.321-6.375,3.344h-16.688c2.0265-10.681,11.432-18.781,23-18.781zm0.062,18.468c2.594,0,4.688,2.094,4.688,4.688s-2.094,4.688-4.688,4.688-4.688-2.094-4.688-4.688,2.094-4.688,4.688-4.688zm-23.031,9.063h16.656c0.536,0.779,1.221,1.464,2,2v16.5c-9.51-1.75-16.866-9.181-18.656-18.5zm29.406,0h16.687c-1.811,9.273-9.215,16.702-18.687,18.5v-16.5c0.779-0.536,1.464-1.221,2-2z"/>
	</g>
</svg>
