<?xml version="1.0" encoding="UTF-8" standalone="no"?>
<!-- Created with Inkscape (http://www.inkscape.org/) -->

<svg
   xmlns:dc="http://purl.org/dc/elements/1.1/"
   xmlns:cc="http://creativecommons.org/ns#"
   xmlns:rdf="http://www.w3.org/1999/02/22-rdf-syntax-ns#"
   xmlns:svg="http://www.w3.org/2000/svg"
   xmlns="http://www.w3.org/2000/svg"
   version="1.1"
   width="256"
   height="256"
   id="svg2">
  <defs
     id="defs4" />
  <metadata
     id="metadata7">
    <rdf:RDF>
      <cc:Work
         rdf:about="">
        <dc:format>image/svg+xml</dc:format>
        <dc:type
           rdf:resource="http://purl.org/dc/dcmitype/StillImage" />
        <dc:title></dc:title>
      </cc:Work>
    </rdf:RDF>
  </metadata>
  <path
     d="m 128.00002,85.701009 -0.0665,0.01663 c 0,0 -31.787759,0.328777 -33.420191,1.247022 -1.632438,0.918244 -1.939327,1.540099 -2.9596,2.942972 -1.020267,1.402874 -8.413243,23.028337 -8.413243,23.028337 l -0.332539,2.61044 -0.831348,0.93111 -0.748213,3.55817 -0.149643,4.53916 c 0,0 -0.179688,7.11619 0.04988,9.7434 0.113276,1.29636 0.169675,2.29088 0.199524,2.97622 -0.285452,0.38417 -0.448928,0.86254 -0.448928,1.38004 l 0,29.31333 c 0,1.27898 1.032175,2.31115 2.311147,2.31115 l 8.729156,0 c 1.278972,0 2.294521,-1.03217 2.294521,-2.31115 l 0,-14.49871 28.581747,0 c 0.67344,2.18829 2.71191,3.79095 5.12111,3.79095 0.0279,0 0.0553,4.3e-4 0.0831,0 0.0278,4.3e-4 0.0552,0 0.0831,0 2.4092,0 4.44767,-1.60266 5.12111,-3.79095 l 28.58175,0 0,14.49871 c 0,1.27898 1.01555,2.31115 2.29452,2.31115 l 8.72915,0 c 1.27898,0 2.31115,-1.03217 2.31115,-2.31115 l 0,-29.31333 c 0,-0.5175 -0.16347,-0.99587 -0.44893,-1.38004 0.0299,-0.68534 0.0863,-1.67986 0.19953,-2.97622 0.22957,-2.62721 0.0499,-9.7434 0.0499,-9.7434 l -0.14964,-4.53916 -0.74822,-3.55817 -0.83135,-0.93111 -0.33254,-2.61044 c 0,0 -7.39297,-21.625463 -8.41324,-23.028337 -1.02027,-1.402873 -1.32716,-2.024728 -2.9596,-2.942972 -1.63243,-0.918245 -33.42019,-1.247022 -33.42019,-1.247022 L 128,85.701009 z m 0,2.876464 c 0.12864,0.0022 18.91735,0.332539 20.90009,0.332539 1.98953,0 10.87404,0.515436 10.87404,0.515436 0,0 1.02407,0.404347 1.33015,0.914483 0.30608,0.510136 2.84321,6.484515 2.84321,6.484515 0,0 3.07372,9.385174 3.17575,9.793284 0.10203,0.40811 0.49881,3.35864 0.49881,3.35864 l -39.62205,0.44893 -39.62205,-0.44893 c 0,0 0.39678,-2.95053 0.498808,-3.35864 0.102029,-0.40811 3.17575,-9.793284 3.17575,-9.793284 0,0 2.537131,-5.974379 2.843211,-6.484515 0.30608,-0.510136 1.330157,-0.914483 1.330157,-0.914483 0,0 8.884504,-0.515436 10.874034,-0.515436 1.98274,0 20.77145,-0.330304 20.90009,-0.332539 z m -41.401135,24.075837 82.752395,0 0,1.44655 -82.752395,0 0,-1.44655 z m 7.615148,35.18266 30.244447,0 c -0.76708,0.65 -1.35679,1.51051 -1.6627,2.49404 l -28.581747,0 0,-2.49404 z m 37.327527,0 30.24445,0 0,2.49404 -28.58175,0 c -0.30591,-0.98353 -0.89562,-1.84404 -1.6627,-2.49404 z"
     id="path2995"
     style="fill:#000000;fill-opacity:1;stroke:none" />
</svg>
